<?xml version="1.0" standalone="no"?>
<!DOCTYPE svg PUBLIC "-//W3C//DTD SVG 20010904//EN"
 "http://www.w3.org/TR/2001/REC-SVG-20010904/DTD/svg10.dtd">
<svg version="1.0" xmlns="http://www.w3.org/2000/svg"
 width="270.000000pt" height="270.000000pt" viewBox="0 0 270.000000 270.000000"
 preserveAspectRatio="xMidYMid meet">
<metadata>
Created by potrace 1.11, written by Peter Selinger 2001-2013
</metadata>
<g transform="translate(0.000000,270.000000) scale(0.100000,-0.100000)"
fill="#000000" stroke="none">
<path d="M1355 2018 c-11 -36 -46 -107 -56 -114 -5 -3 -9 -13 -9 -24 0 -10 -7
-20 -15 -24 -8 -3 -15 -15 -15 -26 0 -11 -6 -23 -13 -26 -7 -2 -22 -25 -32
-49 -11 -25 -25 -45 -31 -45 -7 0 -15 -8 -18 -17 -13 -35 -37 -73 -47 -73 -5
0 -9 -6 -9 -14 0 -7 -7 -19 -15 -26 -8 -7 -15 -20 -15 -30 0 -10 -7 -20 -15
-24 -8 -3 -15 -15 -15 -26 0 -12 -7 -28 -15 -36 -8 -9 -15 -28 -15 -44 0 -15
-7 -41 -15 -56 -19 -38 -20 -182 -1 -209 7 -11 16 -32 20 -47 3 -16 11 -28 16
-28 6 0 10 -7 10 -15 0 -11 13 -15 53 -15 30 -1 60 -7 71 -15 29 -22 258 -21
280 1 26 26 18 52 -30 99 -37 36 -44 49 -38 67 3 13 11 25 15 26 10 4 12 82 3
106 -7 19 -24 11 -24 -12 0 -15 -65 -82 -81 -82 -4 0 -9 -9 -12 -20 -3 -11
-11 -20 -17 -20 -8 0 -10 9 -7 23 3 12 -1 31 -9 41 -14 20 -14 20 -15 0 -1
-10 0 -27 1 -38 5 -50 -23 -87 -37 -48 -4 9 -12 22 -19 29 -6 6 -14 39 -18 72
-4 34 -11 61 -16 61 -23 0 -39 -36 -46 -103 -7 -70 -22 -73 -23 -4 -1 15 -5
27 -11 27 -13 0 -13 59 1 117 26 106 138 297 202 345 30 22 93 33 102 18 4 -7
2 -15 -4 -19 -20 -13 -51 -79 -51 -109 0 -17 12 -40 30 -60 17 -18 30 -37 30
-43 0 -5 4 -9 8 -9 5 0 14 -10 20 -22 7 -13 23 -41 37 -63 13 -22 24 -50 25
-62 0 -30 16 -37 24 -10 10 38 7 75 -9 91 -8 8 -15 24 -15 36 0 11 -7 23 -15
26 -8 4 -15 14 -15 24 0 11 -4 22 -10 25 -5 3 -18 26 -29 51 -19 42 -19 48 -5
85 9 21 22 39 29 39 16 0 105 -99 105 -116 0 -7 4 -14 8 -16 13 -5 75 -119 94
-171 22 -64 24 -276 2 -318 -18 -36 -18 -39 5 -39 10 0 32 17 47 38 29 37 29
38 27 170 -1 102 -5 138 -17 157 -9 13 -16 31 -16 39 0 8 -6 21 -13 28 -6 7
-21 32 -32 55 -11 24 -25 43 -31 43 -7 0 -15 11 -18 25 -4 14 -11 25 -16 25
-6 0 -10 7 -10 15 0 9 -7 18 -15 21 -8 4 -15 12 -15 20 0 8 -7 14 -15 14 -8 0
-15 6 -15 13 0 8 -13 33 -30 55 -16 23 -30 48 -30 56 0 7 -7 19 -15 26 -8 7
-15 22 -15 34 0 11 -7 30 -15 40 -8 11 -15 37 -15 57 0 44 -15 60 -25 27z"/>
<path d="M1206 1436 c-8 -41 2 -106 15 -106 11 0 11 111 0 128 -6 10 -10 3
-15 -22z"/>
<path d="M1545 1383 c8 -77 -13 -133 -51 -133 -20 0 -25 -4 -20 -16 4 -9 0
-24 -8 -33 -13 -14 -13 -19 2 -38 16 -20 20 -21 64 -9 85 22 105 61 78 149
-11 34 -20 70 -20 80 0 16 -33 57 -46 57 -3 0 -3 -26 1 -57z"/>
<path d="M1835 1043 c-5 -16 -15 -23 -31 -23 -14 0 -27 -7 -30 -15 -4 -8 -16
-15 -28 -15 -32 0 -66 -11 -66 -21 0 -15 68 -10 84 6 8 8 21 15 29 15 24 0 59
37 54 57 -4 16 -6 15 -12 -4z"/>
<path d="M598 1031 c-14 -17 -15 -24 -5 -44 16 -30 42 -57 56 -57 6 0 11 -4
11 -9 0 -5 15 -13 33 -16 17 -4 41 -14 52 -21 11 -8 38 -14 61 -14 23 0 44 -5
46 -11 5 -14 168 -26 168 -12 0 10 -68 23 -121 23 -16 0 -29 4 -29 10 0 5 -17
12 -37 16 -86 14 -186 78 -208 130 -10 25 -10 25 -27 5z"/>
<path d="M850 1045 c0 -11 53 -55 66 -55 7 0 14 -5 16 -11 2 -6 27 -14 56 -17
29 -2 52 -8 52 -13 0 -5 39 -8 88 -8 l87 2 -85 10 c-47 5 -88 14 -91 20 -4 5
-30 12 -58 15 -34 3 -51 9 -51 18 0 8 -7 14 -16 14 -8 0 -22 7 -30 15 -15 15
-34 20 -34 10z"/>
<path d="M323 1014 c-33 -37 -29 -74 10 -112 18 -18 38 -32 44 -32 6 0 13 -7
17 -15 3 -8 16 -15 30 -15 13 0 26 -5 28 -10 2 -6 21 -13 43 -17 22 -3 43 -10
46 -16 4 -5 27 -12 53 -14 25 -3 46 -9 46 -13 0 -12 77 -21 108 -13 l27 7 -30
7 c-16 4 -45 7 -63 8 -18 0 -40 8 -48 16 -9 8 -28 15 -43 15 -16 0 -34 7 -41
15 -7 8 -21 15 -30 15 -26 0 -120 64 -141 97 -11 15 -19 45 -19 66 0 44 -7 46
-37 11z"/>
<path d="M2355 1013 c5 -26 1 -41 -22 -73 -15 -22 -34 -40 -40 -40 -7 0 -13
-5 -13 -10 0 -6 -10 -15 -22 -20 -13 -6 -30 -14 -38 -19 -35 -19 -87 -40 -117
-46 -18 -4 -33 -11 -33 -16 0 -5 -17 -9 -37 -10 -21 -1 -49 -4 -63 -8 -25 -7
-25 -7 -3 -13 29 -8 103 2 103 13 0 5 17 9 38 9 21 0 47 7 58 15 10 8 31 15
45 15 15 0 32 7 39 15 7 8 20 15 30 15 10 0 23 7 30 15 7 8 18 15 24 15 25 1
64 46 66 75 4 53 0 65 -17 72 -10 4 -22 11 -26 17 -5 6 -5 -4 -2 -21z"/>
<path d="M2067 995 c-15 -19 -34 -35 -41 -35 -8 0 -16 -7 -20 -15 -3 -8 -16
-15 -28 -15 -13 0 -32 -7 -42 -15 -11 -8 -32 -15 -47 -15 -14 0 -32 -7 -39
-15 -7 -8 -27 -15 -44 -15 -51 0 -106 -12 -106 -23 0 -14 153 -3 158 12 2 6
23 11 46 11 23 0 51 7 62 15 10 8 27 15 36 15 23 0 106 57 119 82 12 23 5 48
-13 48 -7 0 -26 -16 -41 -35z"/>
<path d="M1545 950 c-44 -6 -40 -7 38 -8 52 -1 87 2 87 8 0 11 -46 11 -125 0z"/>
<path d="M1042 828 c-9 -4 131 -7 312 -7 181 -1 326 2 323 5 -9 9 -613 11
-635 2z"/>
<path d="M1815 740 c-35 -6 -31 -7 30 -8 48 -1 65 1 55 8 -16 11 -26 11 -85 0z"/>
<path d="M827 733 c18 -2 50 -2 70 0 21 2 7 4 -32 4 -38 0 -55 -2 -38 -4z"/>
<path d="M1198 703 c83 -2 221 -2 305 0 83 1 15 3 -153 3 -168 0 -236 -2 -152
-3z"/>
</g>
</svg>
